<svg width="1600" height="980" viewBox="0 0 1600 980" fill="none" xmlns="http://www.w3.org/2000/svg">
  <rect width="1600" height="980" rx="40" fill="#F1ECE2"/>
  <rect x="72" y="72" width="1456" height="836" rx="36" fill="#E8E0D2"/>
  <rect x="418" y="92" width="764" height="796" rx="54" fill="#15161A"/>
  <rect x="452" y="124" width="696" height="732" rx="38" fill="#FBF8F2"/>
  <rect x="688" y="138" width="274" height="22" rx="11" fill="#202228"/>
  <rect x="500" y="190" width="600" height="44" rx="16" fill="#F4EEE4"/>
  <text x="524" y="218" fill="#2B231B" font-size="24" font-family="Avenir Next, Arial, sans-serif" font-weight="700">Mrs Dalloway.epub</text>
  <rect x="528" y="278" width="544" height="18" rx="9" fill="#DCCFBC"/>
  <rect x="528" y="318" width="496" height="14" rx="7" fill="#E5DAC9"/>
  <rect x="528" y="352" width="520" height="14" rx="7" fill="#E5DAC9"/>
  <rect x="528" y="386" width="510" height="14" rx="7" fill="#E5DAC9"/>
  <rect x="528" y="420" width="470" height="14" rx="7" fill="#E5DAC9"/>
  <rect x="528" y="474" width="540" height="14" rx="7" fill="#E5DAC9"/>
  <rect x="528" y="508" width="506" height="14" rx="7" fill="#E5DAC9"/>
  <rect x="528" y="542" width="524" height="14" rx="7" fill="#E5DAC9"/>
  <rect x="528" y="576" width="458" height="14" rx="7" fill="#E5DAC9"/>
  <rect x="528" y="630" width="548" height="14" rx="7" fill="#E5DAC9"/>
  <rect x="528" y="664" width="492" height="14" rx="7" fill="#E5DAC9"/>
  <rect x="528" y="698" width="516" height="14" rx="7" fill="#E5DAC9"/>
  <rect x="492" y="772" width="616" height="28" rx="14" fill="#EFE6D8"/>
  <rect x="520" y="781" width="370" height="10" rx="5" fill="#433528"/>
  <text x="916" y="792" fill="#6A5F53" font-size="18" font-family="Avenir Next, Arial, sans-serif">Chapter 3 · 61%</text>
  <rect x="1188" y="212" width="236" height="266" rx="22" fill="rgba(255,252,247,0.88)" stroke="#D6CAB7"/>
  <text x="1220" y="256" fill="#241D16" font-size="22" font-family="Avenir Next, Arial, sans-serif" font-weight="700">Reading</text>
  <text x="1220" y="300" fill="#6A5F53" font-size="18" font-family="Avenir Next, Arial, sans-serif">Font size</text>
  <rect x="1220" y="320" width="168" height="36" rx="18" fill="#F4EEE4"/>
  <text x="1286" y="344" fill="#2E251C" font-size="18" font-family="Avenir Next, Arial, sans-serif" text-anchor="middle">16</text>
  <text x="1220" y="394" fill="#6A5F53" font-size="18" font-family="Avenir Next, Arial, sans-serif">Auto-scroll</text>
  <rect x="1290" y="378" width="98" height="36" rx="18" fill="#433528"/>
  <text x="1339" y="402" fill="#F6F2EA" font-size="16" font-family="Avenir Next, Arial, sans-serif" font-weight="700" text-anchor="middle">ON</text>
  <text x="1220" y="452" fill="#6A5F53" font-size="18" font-family="Avenir Next, Arial, sans-serif">Speed</text>
  <rect x="1220" y="468" width="168" height="36" rx="18" fill="#F4EEE4"/>
  <text x="1304" y="492" fill="#2E251C" font-size="18" font-family="Avenir Next, Arial, sans-serif" text-anchor="middle">0.1</text>
  <text x="160" y="178" fill="#2B231B" font-size="42" font-family="Avenir Next, Arial, sans-serif" font-weight="700">Reader Window</text>
  <text x="160" y="216" fill="#6A5F53" font-size="21" font-family="Avenir Next, Arial, sans-serif">Independent floating window with persistent progress and precise auto-scroll.</text>
  <circle cx="170" cy="308" r="8" fill="#433528"/>
  <text x="194" y="316" fill="#4B4036" font-size="18" font-family="Avenir Next, Arial, sans-serif">EPUB chapter rendering</text>
  <circle cx="170" cy="352" r="8" fill="#433528"/>
  <text x="194" y="360" fill="#4B4036" font-size="18" font-family="Avenir Next, Arial, sans-serif">Progress restore</text>
  <circle cx="170" cy="396" r="8" fill="#433528"/>
  <text x="194" y="404" fill="#4B4036" font-size="18" font-family="Avenir Next, Arial, sans-serif">Fine-grained speed control</text>
  <circle cx="170" cy="440" r="8" fill="#433528"/>
  <text x="194" y="448" fill="#4B4036" font-size="18" font-family="Avenir Next, Arial, sans-serif">Reader preferences saved locally</text>
</svg>
